<?xml version="1.0" encoding="UTF-8"?> <svg xmlns="http://www.w3.org/2000/svg" xmlns:xlink="http://www.w3.org/1999/xlink" width="1639px" height="1440px" viewBox="0 0 1639 1440" version="1.1"><!-- Generator: Sketch 56.2 (81672) - https://sketch.com --><title>Group 34</title><desc>Created with Sketch.</desc><defs><linearGradient x1="50%" y1="37.1750066%" x2="50%" y2="100%" id="linearGradient-1"><stop stop-color="#FFB3E3" offset="0%"></stop><stop stop-color="#F885CE" offset="100%"></stop></linearGradient><linearGradient x1="42.7566596%" y1="43.6442832%" x2="50%" y2="59.4692949%" id="linearGradient-2"><stop stop-color="#E9C4A7" offset="0%"></stop><stop stop-color="#C9A283" offset="100%"></stop></linearGradient><path d="M163,652.5 C69,678.799145 22.5,628.707265 23.5,502.224359 C-7.83333333,307.40812 -7.83333333,197.333333 23.5,172 L396,0.5 C520.666667,106.6585 604.833333,183.698125 648.5,231.618875 C714,303.5 684,413.5 548.5,507 C543.166667,443.503472 510.5,407.462674 450.5,398.877604 C432.303764,458.705581 410.970431,499.413046 386.5,521 C347.081542,555.773579 272.581542,599.606912 163,652.5 Z" id="path-3"></path></defs><g id="Page-1" stroke="none" stroke-width="1" fill="none" fill-rule="evenodd"><g id="Group-34"><g id="Group-33" transform="translate(41.000000, 187.000000)"><g id="Group-26" transform="translate(666.000000, 78.000000)" fill-rule="nonzero"><g id="Group-25" transform="translate(399.084342, 233.014655) rotate(4.000000) translate(-399.084342, -233.014655) translate(139.584342, 18.014655)"><path d="M39.2497772,173.613546 C27.9379383,177.252568 18.0069971,169.502714 9.45695364,150.363985 C26.467346,168.963336 43.7130416,166.391953 61.1940405,142.649837 C66.8670545,129.13049 70.9147453,114.129018 75.6556291,101.293103 C82.8609272,81.784802 105.527594,63.4632001 143.655629,46.3282975 L120.238411,157.56705 L127.89404,298.477011 C60.6445916,323.087484 28.6710817,307.330779 31.9735099,251.206897 C-14.410596,244.454023 -4.50331126,188.180077 26.5695364,179.626437 C31.3217983,178.318248 35.5157873,176.262417 39.2497733,173.613549 Z" id="Combined-Shape" fill="#8F5438"></path><path d="M113.483444,132.356322 C67.5496689,180.977011 67.5496689,237.701149 113.483444,302.528736 C116.91126,373.699943 131.772187,395.00901 158.066225,366.455939 C192.291391,437.586207 236.12362,443.588761 289.562914,384.463602 L305.324503,429.032567 L439.072848,397.969349 L399.89404,294.457169 C343.383096,253.792408 298.800314,224.219201 266.145695,205.737548 C233.491076,187.255894 182.603659,162.795486 113.483444,132.356322 Z" id="Path-470" fill="#E8C0A1"></path><path d="M143.655629,46.3282975 C120.487042,60.8599028 106.376666,73.0288866 101.324503,82.835249 C68.0455254,147.430496 117.763659,221.397357 222.913907,245.354406 C236.724062,211.439974 254.737307,205.137292 276.953642,226.44636 C285.960265,246.554917 281.306843,269.364623 262.993377,294.875479 C304.12362,352.199872 350.958057,355.201149 403.496689,303.87931 C491.761589,315.884419 518.481236,281.969987 483.655629,202.136015 C525.986755,153.815453 523.88521,111.047254 477.350993,73.8314176 C462.339956,64.2273308 435.019868,60.4757344 395.390728,62.5766284 C380.980132,61.3761175 358.613687,46.2196679 328.291391,17.1072797 C297.969095,-12.0051086 236.423841,-2.26476928 143.655629,46.3282975 Z" id="Path-472" fill="#DE8D65"></path><path d="M108.529801,257.95977 C104.326711,234.549808 126.543046,230.973606 175.178808,247.231164 L108.529801,257.95977 Z" id="Path-473" fill="#DE8D65"></path><path d="M140.918731,288.598179 L125.192053,287.265823 L142.309571,277.99507 C142.707491,277.587954 143.162209,277.248848 143.672795,276.988772 C147.661651,274.956978 153.549733,278.51797 156.824194,284.942469 C160.098654,291.366968 159.519522,298.222149 155.530666,300.253943 C151.541809,302.285737 145.653727,298.724745 142.379267,292.300246 C141.752086,291.069717 141.266281,289.823389 140.918731,288.598179 Z" id="Combined-Shape" fill="#121212"></path><path d="M263.443709,294.457169 C253.536424,298.980339 243.629139,298.980339 233.721854,294.457169 C243.629139,307.041279 256.988962,311.682631 273.801325,308.381226 L263.443709,294.457169 Z" id="Path-475" fill="#91694D"></path><path d="M232.579144,270.9347 C253.29343,271.237151 260.347413,263.434248 253.741096,247.52599 C251.038735,243.02356 245.784936,241.372194 237.9797,242.571892 C243.542316,227.623345 259.685009,225.168549 286.407778,235.207504 C285.553257,238.757343 285.130086,241.675163 285.138265,243.960963 C270.960696,239.435136 259.744106,237.471905 251.488493,238.071269 C267.700617,246.777191 269.503077,257.732572 256.895875,270.937411 C252.166878,273.037601 248.564517,274.087696 246.08879,274.087696 C243.160799,274.08737 238.657584,273.036371 232.579144,270.9347 Z" id="Path-476" fill="#91694D" transform="translate(259.493461, 251.622669) rotate(-23.000000) translate(-259.493461, -251.622669) "></path><path d="M233.721854,66.6283525 C271.84989,124.252874 313.880795,152.164751 359.81457,150.363985 C428.715232,147.662835 451.231788,150.363985 452.582781,233.199234 C449.880795,178.57599 418.807947,153.815453 359.364238,158.917625 C299.92053,164.019796 258.039735,133.256705 233.721854,66.6283525 Z" id="Path-477" fill="#BE7049"></path><path d="M236.874172,221.944444 C197.245033,208.13857 164.520971,177.675607 138.701987,130.555556 C155.81457,177.075351 185.536424,211.740102 227.86755,234.549808 L236.874172,221.944444 Z" id="Path-479" fill="#BE7049"></path><path d="M301.721854,331.791188 C331.143488,294.103131 332.644592,257.519559 306.225166,222.040471 C342.551876,256.791268 346.905077,295.625798 319.284768,338.544061 C314.275948,337.304835 310.82341,336.254388 308.927152,335.39272 C307.520981,334.75375 305.119215,333.553239 301.721854,331.791188 Z" id="Path-480" fill="#BE7049"></path><path d="M483.655629,202.136015 C483.055188,127.104087 461.289183,87.037037 418.357616,81.9348659 C472.997792,84.936143 498.516556,120.201149 494.913907,187.729885 L483.655629,202.136015 Z" id="Path-481" fill="#BE7049"></path><path d="M463.404986,140.45977 C463.84106,139.559387 457.086093,90.4885057 391.788079,85.0862069 C380.679912,84.7860792 356.962472,64.5274585 320.635762,24.3103448 C348.256071,67.5287356 373.174393,90.188378 395.390728,92.289272 C428.715232,95.440613 462.968912,141.360153 463.404986,140.45977 Z" id="Path-482" fill="#BE7049"></path><path d="M440.423841,306.130268 C473.748344,283.62069 486.207506,254.05811 477.801325,217.442529 C491.9117,255.258621 487.85872,283.470626 465.642384,302.078544 C460.858908,303.742103 457.106148,304.79255 454.384106,305.229885 C451.502028,305.692933 446.848606,305.99306 440.423841,306.130268 Z" id="Path-483" fill="#BE7049"></path><path d="M358.013245,335.39272 C392.238411,270.565134 363.116998,211.590038 270.649007,158.467433 C365.218543,199.284802 401.845475,254.208174 380.529801,323.237548 C376.497802,326.167054 373.345485,328.267948 371.072848,329.54023 C368.341805,331.06914 363.988604,333.01997 358.013245,335.39272 Z" id="Path-478" fill="#BE7049"></path><path d="M202.198675,180.977011 C164.671082,144.061303 143.505519,103.694125 138.701987,59.8754789 L202.198675,180.977011 Z" id="Path-484" fill="#BE7049"></path><path d="M233.721854,31.9636015 C272.15011,98.8920817 314.331126,129.9553 360.264901,125.153257 C329.709998,114.459332 308.244215,104.555117 295.86755,95.440613 C280.123538,83.8463051 259.408306,62.6873012 233.721854,31.9636015 Z" id="Path-485" fill="#BE7049"></path><path d="M360.264901,174.449234 C421.509934,194.237094 436.370861,236.36238 404.847682,300.825091 C411.320509,263.482152 411.920951,237.338667 406.649007,222.394636 C402.013666,209.255143 386.552297,193.273342 360.264901,174.449234 Z" id="Path-486" fill="#BE7049"></path><path d="M155.81457,183.678161 C129.395143,164.16986 121.589404,125.153257 132.397351,66.6283525 C120.617027,99.8613674 118.215261,126.572734 125.192053,146.762452 C130.896247,163.269476 141.103753,175.574713 155.81457,183.678161 Z" id="Path-487" fill="#BE7049"></path><path d="M167.523179,384.01341 L194.543046,358.35249 L176.529801,397.068966 C174.341329,394.181785 172.690114,391.930827 171.576159,390.316092 C170.462203,388.701357 169.11121,386.600463 167.523179,384.01341 Z" id="Path-488" fill="#920F0F"></path><path d="M459.337748,68.4589109 C502.269316,67.5585277 521.783664,87.0668291 517.880795,126.983815 C509.628446,94.8701497 491.503548,80.7641471 463.506103,84.6658074 L459.337748,68.4589109 Z" id="Path-490" fill="#DE8D65"></path></g><path d="M139.602649,876.522989 C58.8432671,859.115581 21.1655629,778.231162 26.5695364,633.869732 C-5.43500191,546.532567 8.63008867,496.110708 68.7648082,482.604154 C106.160369,482.458002 124.988855,495.702316 125.250267,522.337099 L159.86755,720.756705 L139.602649,876.522989 Z" id="Path-494" fill="#E9C4A7"></path><path d="M28.8211921,571.743295 C38.7284768,515.619413 62.2958057,496.411239 99.5231788,514.118774 L107.629139,507.816092 C76.406181,487.10728 52.5386313,495.210728 36.0264901,532.126437 C33.0169397,542.521216 31.0655048,550.174473 30.1721854,555.086207 C29.4643274,558.978219 29.0139963,564.530582 28.8211921,571.743295 Z" id="Path-510" fill="#745740"></path><path d="M100.683556,522.672414 C76.0654543,501.363346 79.8182137,481.104725 111.941834,461.896552 C99.933004,473.334653 99.3325625,489.624893 110.140509,510.767273 L100.683556,522.672414 Z" id="Path-504" fill="#D39884"></path><path d="M143.655629,486.657088 C259.390728,431.733716 292.264901,655.478927 263.406045,571.293103 L199.046358,714.77858 C145.607064,718.463869 107.629139,697.346743 85.1125828,651.427203 C46.9845475,578.196041 66.4988962,523.272669 143.655629,486.657088 Z" id="Path-493" fill="#FFE3CD"></path><path d="M190.490066,590.752266 C203.399558,607.176455 209.704194,618.393714 209.403974,624.404045 L213.81754,617.662835 C213.792188,614.102092 211.420337,609.600176 206.701987,604.157088 C201.983637,598.714 196.579663,594.245727 190.490066,590.752266 Z" id="Path-501" fill="#BD8C68"></path><path d="M215.258278,584.348659 L233.721854,584.798851 L246.331126,573.544061 C246.504461,579.163826 245.917294,583.020176 244.569626,585.113112 C243.009217,587.536436 240.594176,589.532576 237.324503,591.101533 C229.818985,594.703065 222.463576,592.452107 215.258278,584.348659 Z" id="Path-500-Copy" fill="#5A4D44"></path><path d="M191.390728,710.402299 C178.48733,646.475096 216.691944,588.250319 306.00457,535.727969 C331.670398,571.334107 326.339956,605.221273 290.013245,637.389469 L191.390728,710.402299 Z" id="Path-492" fill="#E9C4A7"></path><path d="M143.655629,706.96313 C202.198675,720.96089 250.984547,672.886335 290.013245,562.739464 C306.825607,480.50447 401.995585,433.084291 575.523179,420.478927 L608.847682,1132.68199 C474.949227,1189.70626 350.657837,1187.90549 235.97351,1127.27969 L242.226972,875.622605 C221.245635,892.429757 182.984547,894.680715 127.443709,882.375479 C118.658657,841.19055 115.206118,810.427459 117.086093,790.086207 C118.808767,771.446937 127.665279,743.739245 143.655629,706.96313 Z" id="Path-491" fill="url(#linearGradient-1)"></path><path d="M71.602649,611.577144 C54.790287,607.230695 45.3333333,612.260536 43.2317881,626.666667 C40.0794702,648.275862 60.3443709,673.761022 95.4701987,659.667868 L71.602649,611.577144 Z" id="Path-495" fill="#FFE4D0"></path><path d="M280.954641,919.291188 L273.26941,1103.41954 C375.398854,1151.43997 483.655629,1149.78927 598.039735,1098.46743 C486.588528,1140.78544 380.893496,1140.78544 280.954641,1098.46743 L280.954641,919.291188 Z" id="Path-509" fill="#E47EC0"></path><path d="M41.4304636,782.883142 C-44.4075492,930.245849 3.33383059,1021.93487 184.654603,1057.95019 C335.722618,1051.34738 438.709439,962.509579 493.615068,791.436782 C548.520696,620.363985 580.1766,514.568966 588.582781,474.051724 C480.803532,442.838442 416.856512,436.685824 396.741722,455.59387 C466.422412,458.295019 521.820509,467.298851 562.936014,482.605364 C473.155272,689.393359 364.918322,820.399106 238.225166,875.622605 C171.277248,895.431034 122.116428,897.681992 90.7427045,882.375479 L41.4304636,782.883142 Z" id="Path-511" fill="#8DE5FF"></path><path d="M52.6887417,806.743295 C82.0410664,940 158.129699,973.014049 280.954641,905.785441 C298.70232,914.189017 313.880795,914.189017 326.490066,905.785441 C345.403974,893.180077 365.641795,855.363985 313.416924,840.057471 C239.871867,882.675607 177.880795,896.781609 127.443709,882.375479 L125.250267,871.570881 C105.683865,863.728419 91.7041953,855.925099 83.3112583,848.16092 C74.9183212,840.39674 64.7108157,826.590865 52.6887417,806.743295 Z" id="Path-496" fill="#FFE4D0"></path><path d="M311.178808,854.463602 C329.415053,859.8659 341.254468,867.219029 346.697052,876.522989 C346.13522,880.124521 345.253863,882.975734 344.05298,885.076628 C338.580801,876.983669 334.2276,871.431307 330.993377,868.41954 C326.922228,864.628412 320.317372,859.976432 311.178808,854.463602 Z" id="Path-497" fill="#C1895E"></path><path d="M337.298013,895.431034 C332.494481,885.52682 321.536424,875.472542 304.423841,865.268199 C320.03532,882.075351 328.741722,894.680715 330.543046,903.084291 C332.610926,901.441719 334.112029,900.091144 335.046358,899.032567 C335.613133,898.390421 336.363685,897.18991 337.298013,895.431034 Z" id="Path-498" fill="#C1895E"></path><path d="M321.986755,908.48659 C318.083885,899.182631 308.1766,888.978289 292.264901,877.873563 C303.97351,891.979566 310.728477,903.234355 312.529801,911.637931 C315.782554,910.854144 318.034209,910.253889 319.284768,909.837165 C319.809672,909.662251 320.710334,909.21206 321.986755,908.48659 Z" id="Path-498-Copy" fill="#C1895E"></path><path d="M81.5099338,642.873563 C68,649.776501 61.3951435,645.87484 61.6953642,631.168582 L43.6821192,624.404045 L42.9108668,630.268199 L57.6423841,635.292633 C57.3421634,643.948119 59.8940397,649.026181 65.2980132,650.52682 C70.7019868,652.027458 76.1059603,649.476373 81.5099338,642.873563 Z" id="Path-499" fill="#A9734B"></path><path d="M122.490066,616.48017 L143.626974,616.993632 L158.061935,604.157088 C158.260367,610.566657 157.588185,614.964981 156.045388,617.35206 C154.259049,620.115959 151.494335,622.392637 147.751248,624.182096 C139.15901,628.28979 130.738616,625.722481 122.490066,616.48017 Z" id="Path-500" fill="#5A4D44"></path><path d="M112.806964,508.716475 C100.793609,481.198246 117.064884,466.744868 161.62079,465.35634 C189.722831,464.539838 203.473631,458.284404 202.87319,446.590038 C198.97032,466.398467 184.409613,478.703704 159.19107,483.505747 C141.911741,487.190316 130.503353,490.491721 124.965905,493.409962 C120.696142,495.660131 116.643162,500.762302 112.806964,508.716475 Z" id="Path-502" fill="#D39884"></path><path d="M116.18543,514.098616 C117.086093,496.391081 135.84989,488.737824 172.476821,491.138846 C157.609925,494.799237 146.201536,498.250706 138.251656,501.493252 C133.692339,503.352877 126.33693,507.554665 116.18543,514.098616 Z" id="Path-503" fill="#D39884"></path><path d="M199.94702,564.441949 C207.152318,537.730582 221.562914,532.328283 243.178808,548.235052 C232.07214,544.745505 224.2664,543.845122 219.761589,545.533903 C214.659336,547.446655 208.05448,553.749337 199.94702,564.441949 Z" id="Path-505" fill="#D39884" opacity="0.280691964"></path><path d="M111.682119,599.556891 C118.887417,572.845525 133.298013,567.443226 154.913907,583.349995 C143.807239,579.860448 136.001499,578.960065 131.496689,580.648845 C126.394435,582.561597 119.789579,588.864279 111.682119,599.556891 Z" id="Path-505-Copy" fill="#D39884" opacity="0.280691964"></path><path d="M126.092715,875.622605 C245.086113,891.272122 358.145721,813.699827 465.271538,642.90572 C376.953647,823.261038 264.494481,904.134738 127.89404,885.52682 L126.092715,875.622605 Z" id="Path-506" fill="#AE5A8F"></path><path d="M350.425166,518.62069 C333.312583,526.590698 325.206623,545.198616 326.107285,574.444444 L350.425166,518.62069 Z" id="Path-507-Copy" fill="#E79DCC" opacity="0.596191406"></path><path d="M322.917299,534.827586 C307.30582,546.832695 300.701026,563.039591 303.102916,583.448276 L322.917299,534.827586 Z" id="Path-507-Copy-2" fill="#E79DCC" opacity="0.596191406"></path><path d="M360.707724,544.731801 C345.696686,551.934866 339.842444,565.140485 343.144997,584.348659 L360.707724,544.731801 Z" id="Path-507-Copy-3" fill="#E79DCC" opacity="0.596191406"></path><path d="M47.8631887,604.814781 C46.5769128,556.95614 56.5916115,535.427842 77.9072848,540.229885 C75.205298,545.632184 73.4039735,549.233716 72.5033113,551.034483 C70.0151082,548.787347 67.0124605,549.606834 63.4953682,553.492942 C57.7911739,559.795624 52.5804474,576.902903 47.8631887,604.814781 Z" id="Path-507" fill="#745740"></path><polygon id="Path-508" fill="url(#linearGradient-2)" opacity="0.701357887" points="417.456954 404.722222 546.701987 364.655172 562.936014 421.37931 428.715232 445.239464"></polygon><path d="M576.423841,496.111111 C561.412804,559.738186 534.993377,612.110473 497.165563,653.227969 C537.395143,569.465564 557.359823,519.63767 557.059603,503.744288 L576.423841,496.111111 Z" id="Path-516" fill="#63B2C9" opacity="0.828776042"></path><path d="M578.65339,473.601533 C632.693125,540.530013 649.355376,587.650064 628.640145,614.961686 C582.435625,647.348706 557.224451,603.523366 553.006623,483.485667 L563.279168,483.485667 C577.73174,572.336857 593.063986,612.560664 609.275906,604.157088 C625.487827,595.753512 613.748218,554.786079 574.057081,481.254789 L578.65339,473.601533 Z" id="Path-513" fill="#7BCCE4"></path><path d="M605.047838,447.357274 C649.269874,502.377382 662.907924,541.111163 645.961987,563.558619 C608.161585,590.175174 587.529275,554.148656 584.065056,455.479064 L592.469927,455.480192 C604.304648,528.51608 616.853743,561.58111 630.117211,554.675281 C643.38068,547.769451 633.770956,514.093567 601.288038,453.647628 L605.047838,447.357274 Z" id="Path-513-Copy" fill="#8DE5FF" transform="translate(618.534540, 509.698884) rotate(-30.000000) translate(-618.534540, -509.698884) "></path><path d="M552.10596,468.502357 C541.898455,462.897976 519.081678,459.195402 483.655629,457.394636 C513.977925,463.39719 532.441501,469.099617 539.046358,474.501916 L552.10596,468.502357 Z" id="Path-515" fill="#63B2C9"></path><path d="M552.556291,506.465517 C534.543046,494.780545 529.889625,480.004257 538.596026,462.136654 C577.324503,450.554585 597.139073,455.797531 598.039735,477.865492 C598.940397,499.933453 583.779249,509.466794 552.556291,506.465517 Z" id="Path-512" fill="#79CAE2"></path><path d="M566.066225,507.004484 C566.066225,518.650282 567.116998,533.777139 569.218543,552.385057 C563.214128,540.379949 559.625483,525.253091 558.452608,507.004484 L566.066225,507.004484 Z" id="Path-514" fill="#4F99AF"></path><path d="M534.34065,481.22546 C561.495449,472.541309 582.278146,475.252235 596.688742,489.358238 C584.379691,479.754151 564.415011,480.204342 536.794702,490.708812 L534.34065,481.22546 Z" id="Path-517" fill="#5DA3B8"></path><path d="M558.452608,477.865492 C565.329677,465.438774 576.573951,460.195828 592.18543,462.136654 C587.598168,457.925346 581.272544,455.932118 573.20856,456.156972 C562.742809,457.865317 556.609272,465.101491 554.807947,477.865492 L558.452608,477.865492 Z" id="Path-518" fill="#5DA3B8"></path><path d="M159.869369,1029.2913 C263.145215,1034.89213 346.15505,997.476175 408.898875,917.043447 C346.351936,965.314525 299.886499,996.893347 269.502563,1011.77991 C242.645298,1024.93859 206.100901,1030.77572 159.869369,1029.2913 Z" id="Path-519" fill="#6ABBD3" transform="translate(284.384122, 973.440836) rotate(-5.000000) translate(-284.384122, -973.440836) "></path><path d="M57.192053,929.195402 C23.5673289,875.772669 18.8069335,827.247008 42.9108668,783.618418 L52.6887417,802.241379 C38.5783664,816.947637 33.4746137,837.356322 37.3774834,863.467433 C41.2803532,889.578544 47.8852097,911.487867 57.192053,929.195402 Z" id="Path-520" fill="#6ABBD3"></path><path d="M337.298013,946.979713 C403.157636,879.599879 449.419451,818.448276 476.083459,763.524904 L337.298013,946.979713 Z" id="Path-521" fill="#6ABBD3"></path><path d="M212.556291,614.961686 C196.944812,640.472542 192.741722,668.684547 199.94702,699.597701 C196.344371,702.298851 193.192053,703.799489 190.490066,704.099617 C185.086093,681.890166 188.838852,658.480204 201.748344,633.869732 L212.556291,614.961686 Z" id="Path-522" fill="#8A6B55"></path><polygon id="Path-523" fill="#966E56" points="417.456954 404.722222 455.735099 392.56705 421.059603 415.977011"></polygon><ellipse id="Oval" fill="#AE5A8F" cx="277.854305" cy="1071.90613" rx="15.7615894" ry="15.756705"></ellipse><path d="M135.099338,877.423372 C118.887417,820.699234 117.986755,772.678799 132.397351,733.362069 C111.381898,778.081098 109.880795,828.652618 127.89404,885.076628" id="Path-524" fill="#AE5A8F"></path><path d="M350.425166,479.904215 C320.658278,497.61175 298.719647,532.126437 284.609272,583.448276 C268.09713,628.359695 248.432671,660.896617 225.615894,681.059043 C248.13245,653.201035 265.995585,616.312261 279.205298,570.39272 C292.415011,524.47318 316.154967,494.310345 350.425166,479.904215 Z" id="Path-525" fill="#AE5A8F"></path><ellipse id="Oval" fill="#F9D8C0" cx="116.635762" cy="644.224138" rx="18.4635762" ry="18.4578544"></ellipse></g><g id="Group-27"><path d="M423.5,39.5 C511.833333,47.3051721 555.166667,103.256465 553.5,207.353879 C593.5,276.831839 598.166667,337.059015 567.5,388.035409 L534,391.503017 C536.666667,372.501006 532,351.833333 520,329.5 C530.666667,340.837356 527,361.505029 509,391.503017 L418.5,388.035409 L423.5,39.5 Z" id="Path-527" fill="#261138" fill-rule="nonzero"></path><path d="M404.5,487.499174 C386.833333,458.499725 352.833333,451 302.5,465 L310.5,416 C368.833333,438.004023 410.333333,429.838362 435,391.503017 L458.5,345 C470.833333,343.666667 480,341 486,337 C492,333 485.5,309.166667 466.5,265.5 C496.833333,165.166667 483,101.082045 425,73.2461344 L270.5,216 L171,330.5 L150.5,503.598682 C76.1666667,563.532894 33.8333333,611.666667 23.5,648 L404.5,487.499174 Z" id="Path-526" fill="#F6E2C3" fill-rule="nonzero"></path><path d="M423.5,39.5 C453.166667,95.1666667 437.5,145.666667 376.5,191 C380.833333,219.666667 367.833333,240.916667 337.5,254.75 C342.5,217.916667 328.666667,201.666667 296,206 C247,212.5 245,296 306.5,312 C329.833333,331 335.666667,349.666667 324,368 L278,362 C280,350.333333 276.833333,337 268.5,322 C264.833333,344 261.5,356.5 258.5,359.5 L163.5,330.5 L157.5,289.80131 L155,320.912827 L134.5,307.606651 C117.5,199.868884 109.833333,131.166667 111.5,101.5 C114,57 157.5,-56.2541744 415.5,35.3729128 L423.5,39.5 Z" id="Path-528" fill="#502B6B" fill-rule="nonzero"></path><path d="M315.5,277 C291.833333,275.333333 285.5,265.166667 296.5,246.5 C301.833333,244.166667 308.5,244.333333 316.5,247 C317.166667,226.666667 302.833333,216.666667 273.5,217 C269.833333,219.333333 267,223.166667 265,228.5 C286.333333,226.833333 299.166667,230 303.5,238 C293.833333,234.333333 287.166667,239.333333 283.5,253 C278,273.5 286.5,278.5 305,280 L315.5,277 Z" id="Path-529" fill="#755C36" fill-rule="nonzero"></path><path d="M408,203.551887 C442.333333,188.551887 462.833333,191.218553 469.5,211.551887 L408,203.551887 Z" id="Path-530" fill="#502B6B" fill-rule="nonzero"></path><polygon id="Path-531" fill="#C063B1" fill-rule="nonzero" points="445 373.095531 405 350 434.5 393.385083"></polygon><path d="M436.392042,243.400368 L458.996455,248.825427 C452.586177,253.145397 445.593315,255.251544 438.017867,255.143868 C437.516622,256.938271 436.762639,258.78926 435.754159,260.608606 C431.603988,268.095712 424.715384,272.211701 420.368032,269.801925 C416.02068,267.392148 415.860833,259.369139 420.011004,251.882033 C424.161175,244.394926 431.049778,240.278937 435.397131,242.688714 C435.757577,242.888513 436.089238,243.126899 436.392042,243.400368 Z" id="Combined-Shape" fill="#292929" fill-rule="nonzero"></path><path d="M320.5,207.353879 C339.166667,207.11796 357.833333,201.666667 376.5,191 C372.833333,212.666667 360,226.333333 338,232 C337,226 335.333333,221 333,217 C330.666667,213 326.5,209.784626 320.5,207.353879 Z" id="Path-533" fill="#311943" fill-rule="nonzero"></path><path d="M438.060662,73.2461344 C388.020221,132.748711 323,173.666667 243,196 C163,218.333333 167.833333,272.833333 257.5,359.5 L226,349.5 C149.333333,262.833333 149.833333,208.666667 227.5,187 C305.166667,165.333333 375.353554,127.415378 438.060662,73.2461344 Z" id="Path-534" fill="#301842" fill-rule="nonzero"></path><path d="M269.5,221 C230.5,224.401747 220.166667,247.335517 238.5,289.80131 C236.833333,261.149519 244,245.769687 260,243.661812 C261.357369,237.677208 262.690702,233.12327 264,230 C264.801813,228.087312 266.635146,225.087312 269.5,221 Z" id="Path-535" fill="#311943" fill-rule="nonzero"></path><path d="M348.5,171 C392.580882,157.428821 422.101103,135.61936 437.060662,105.571616 C434.020221,128.190539 423,148.666667 404,167 C392.286277,171.546935 383.286277,174.046935 377,174.5 C370.952944,174.935824 361.452944,173.769157 348.5,171 Z" id="Path-536" fill="#301842" fill-rule="nonzero"></path><path d="M230,157 C316.414216,140.666667 383.434436,106.833333 431.060662,55.5 L426.496455,41 C383.366617,78.4238657 350.867799,103.590532 329,116.5 C307.132201,129.409468 274.132201,142.909468 230,157 Z" id="Path-537" fill="#311943" fill-rule="nonzero"></path><path d="M324.5,98 C265.5,135.666667 211.666667,155.333333 163,157 L324.5,97" id="Path-538" fill="#311943" fill-rule="nonzero"></path><path d="M424,41 C540,44 584.166667,102.333333 556.5,216 C569.914216,121.333333 530.434436,64.5 438.060662,45.5 L424,41 Z" id="Path-539" fill="#311A43" fill-rule="nonzero"></path><polygon id="Path-540" fill="#502B6B" fill-rule="nonzero" points="112.276786 101.491868 112.276786 302.513743 124 305.702497 131.5 185"></polygon><polygon id="Path-541" fill="#755C36" fill-rule="nonzero" points="310 416 269.5 393.385083 307.5 434.5"></polygon><path d="M306,312 C311.666667,313.269996 318.5,311.170829 326.5,305.702497 C323.166667,313.567499 319,317.833333 314,318.5 L306,312 Z" id="Path-542" fill="#755C36" fill-rule="nonzero"></path><path d="M528,207.353879 C561.322506,259.451293 573.486466,311.833333 564.491879,364.5 C560.361532,328.474025 556.364239,302.140692 552.5,285.5 C548.254932,267.219332 540.088266,241.170625 528,207.353879 Z" id="Path-543" fill="#4D2568" fill-rule="nonzero"></path><path d="M541.5,285.5 L512.5,203 C528.5,136.666667 509.666667,90.1666667 456,63.5 C497,91.1666667 513.333333,137.666667 505,203 L541.5,285.5 Z" id="Path-544" fill="#502B6B" fill-rule="nonzero"></path><g id="Path-575" transform="translate(0.000000, 476.000000)"><mask id="mask-4" fill="white"><use xlink:href="#path-3"></use></mask><use id="Mask" fill="#9F77C2" fill-rule="nonzero" xlink:href="#path-3"></use><path d="M15.5,541 C17,542 138.5,619 287,534 L312.5,656.407115 L131.5,691 L35,645 C21,575 14.5,540.333333 15.5,541 Z" fill="#8560A6" fill-rule="nonzero" mask="url(#mask-4)"></path><path d="M454,398.877604 C589,389.911705 662.833333,338.773962 675.5,245.464377 L700,376 L571.5,534 L535,534 L454,398.877604 Z" id="Path-576" fill="#8560A6" fill-rule="nonzero" mask="url(#mask-4)"></path><path d="M68,436.5 L46.5,470 C37.8333333,446 50.3333333,421.333333 84,396 C72,298.333333 134.333333,238.630282 271,216.890845 L591.967046,163.121609 C665.322349,217.37387 647.5,262.333333 538.5,298" id="Path-577" fill="#8560A6" fill-rule="nonzero" mask="url(#mask-4)"></path></g><path d="M550,683.112092 C567.949686,681.891824 580.437107,672.151408 587.462264,653.890845 C623.154088,659.630282 639.166667,645.666667 635.5,612 C629.174923,592 615.01032,587 593.006192,597 C606.668731,557 595.666667,526.666667 560,506 C506.5,475 406,477.203125 405,578.601562 C385,568.160797 372.5,575.533679 367.5,600.720207 L458.996455,623.991251 L469.5,664 L550,683.112092 Z" id="Path-567" fill="#FFE5D8" fill-rule="nonzero"></path><circle id="Oval" fill="#F9D8C0" fill-rule="nonzero" cx="555.5" cy="623.5" r="20.5"></circle><circle id="Oval-Copy-13" fill="#F9D8C0" fill-rule="nonzero" cx="425.5" cy="607.5" r="20.5"></circle><path d="M111.276786,894.231818 C85.5278489,809.744724 135.794484,751.000981 262.07669,718.000588 C312.358897,661.521323 369,640.151408 432,653.890845 C595,681.914232 643.833333,713.938272 578.5,749.962963 C531.833333,776.320988 497.833333,798.333333 476.5,816 C451.5,845.333333 442.666667,869.333333 450,888 C462,942.199009 440.666667,983.998761 386,1013.39926 C331.333333,1042.79975 298.5,1047.66667 287.5,1028 L287.5,1010 L256,981.040984 L175.5,886 L143,881.396552 L111.276786,894.231818 Z" id="Path-554" fill="#8DD9FA" fill-rule="nonzero"></path><path d="M46.5,950 C60.9807692,921.666667 80.0176282,908 103.610577,909 L114,895 C85.6666667,890.666667 64,904.666667 49,937 L46.5,950 Z" id="Path-553" fill="#3E2952" fill-rule="nonzero"></path><path d="M111.276786,821.316589 C255.758929,762.438863 360.166667,788.666667 424.5,900 C344.166667,801.666667 239.833333,775.5 111.5,821.5 L111.276786,821.316589 Z" id="Path-555" fill="#68B2C7" fill-rule="nonzero"></path><path d="M219.57669,798 C296.22186,859.333333 328.537037,933.5 316.522222,1020.5 L306,1033.68908 C319,943.896361 286,865.333333 207,798" id="Path-556" fill="#6FB1C8" fill-rule="nonzero"></path><path d="M480.5,816 C431.26892,742.334118 358.46115,709.667647 262.07669,718.000588 C315.686187,725.460136 353.493957,734.126607 375.5,744 C402.03247,755.904254 437.03247,779.904254 480.5,816 Z" id="Path-557" fill="#75B1C9" fill-rule="nonzero"></path><path d="M318.964515,706 L269.5,707.618875 C247.788657,697.890339 237.12199,678.850714 237.5,650.5 C238,613 250,602 269.5,597 L458.996455,603 C477.418015,614.333959 486.832092,630.601511 487.238686,651.802656 C488,691.5 479.795944,689.598418 458.996455,707.618875 L318.964515,706 Z" id="Path-564" fill="#F1F4FA" fill-rule="nonzero"></path><path d="M408,626 C436,631.1585 449.166667,658.364791 447.5,707.618875 L418.5,707.618875 L408,626 Z" id="Path-566" fill="#BEC7DA" fill-rule="nonzero"></path><path d="M181.5,884.5 C254.166667,833.058109 293.166667,799.030969 298.5,782.418582 C306.5,757.5 298,686.78169 344.5,653.890845 C391,621 410,619 418.5,630 C427,641 438.5,688 427.5,728 C425.880269,733.88993 388.637837,756.24428 386.5,762.5 C374.119246,798.728448 379.803425,841.088993 355.5,844.5 L274.5,999.5 C247.797102,971.767999 229.297102,950.934665 219,937 C208.702898,923.065335 196.202898,905.565335 181.5,884.5 Z" id="Path-545" fill="#F6E3C7" fill-rule="nonzero"></path><path d="M548,982 C453.333333,1051.97018 382.5,1092.04606 335.5,1102.22764 C265,1117.5 227,1192 121.5,1135.29051 C80.8333333,1106.09684 109.5,1080.16667 207.5,1057.5 C205.833333,1035.16667 229.5,1024.33333 278.5,1025 C327.5,1025.66667 384.833333,975.625868 450.5,874.877604 C478.380651,875.352068 501.547318,885.7262 520,906 C538.452682,926.2738 547.786015,951.607133 548,982 Z" id="Path-547" fill="#F6E3C7" fill-rule="nonzero"></path><path d="M447,879.5 C422.308176,849.166667 468.308176,804.666667 585,746 C493.666667,799.666667 451,842.666667 457,875 L447,879.5 Z" id="Path-548" fill="#3E2952" fill-rule="nonzero"></path><path d="M181.5,884.260218 C122.5,859.926885 83,896.760218 63,994.760218 C83.6666667,922.586739 123.166667,886 181.5,885 L181.5,884.260218 Z" id="Path-549" fill="#3E2952" fill-rule="nonzero"></path><path d="M338,704 C347,678.333333 374.5,654.333333 420.5,632 L424.5,640 C408.216833,646.295131 392.716833,654.961798 378,666 C363.283167,677.038202 349.949833,689.704869 338,704 Z" id="Path-546" fill="#826539" fill-rule="nonzero"></path><path d="M348,729 C356,704 383,680.333333 429,658 L430.5,667.5 C416.8835,672.128465 402.716833,679.961798 388,691 C373.283167,702.038202 359.949833,714.704869 348,729 Z" id="Path-546-Copy" fill="#826539" fill-rule="nonzero"></path><path d="M354,759 C360,734.666667 386,711.333333 432,689 L432,699.5 C421.333333,704.5 408.666667,711.666667 394,721 C379.333333,730.333333 366,743 354,759 Z" id="Path-546-Copy-2" fill="#826539" fill-rule="nonzero"></path><path d="M163.5,882.5 C215.166667,951.833333 252.666667,993.333333 276,1007 C284.666667,1012.33333 286.166667,1018.33333 280.5,1025 C289.833333,1025 297.5,1023.66667 303.5,1021 C300.5,1009.66667 289.833333,999 271.5,989 C243.5,967.666667 213.5,932.666667 181.5,884 L163.5,882.5 Z" id="Path-550" fill="#3E2952" fill-rule="nonzero"></path><path d="M219.57669,1077 C185.25969,1092.82083 147.400794,1100.82083 106,1101 C103.61554,1104.66667 102.782207,1108 103.5,1111 C125.006082,1109.91856 144.031646,1107.41856 160.57669,1103.5 C173.243357,1100.5 192.910024,1091.66667 219.57669,1077 Z" id="Path-551" fill="#826539" fill-rule="nonzero"></path><path d="M232.07669,1099 C193.75969,1118.15417 153.900794,1127.82083 112.5,1128 C115.833333,1132.33333 119.666667,1135 124,1136 C140.121622,1134.58523 156.454956,1131.91856 173,1128 C185.666667,1125 205.358897,1115.33333 232.07669,1099 Z" id="Path-551-Copy" fill="#826539" fill-rule="nonzero"></path><path d="M262.07669,1116 C224.093024,1134.82083 184.400794,1144.32083 143,1144.5 C149,1148.5 155,1150.83333 161,1151.5 C172.454956,1151.08523 186.454956,1148.91856 203,1145 C215.666667,1142 235.358897,1132.33333 262.07669,1116 Z" id="Path-551-Copy-2" fill="#826539" fill-rule="nonzero"></path><path d="M273,1053.46933 C240.333333,1057.82304 218.5,1056.99993 207.5,1051 L207,1057.5 C218.031934,1060.67364 227.6986,1062.00697 236,1061.5 C244.3014,1060.99303 256.634733,1058.31614 273,1053.46933 Z" id="Path-552" fill="#826539" fill-rule="nonzero"></path><path d="M408,752.5 C488.387835,694.834118 554.568127,683.334314 606.540876,718.000588 C547.513625,696.666863 484.833333,711.333333 418.5,762 L408,752.5 Z" id="Path-558" fill="#7BB0CA" fill-rule="nonzero"></path><path d="M143,790 C176.666667,764.666667 210.166667,757.666667 243.5,769 C220.512472,770.03222 203.512472,771.698886 192.5,774 C181.179139,776.365553 164.679139,781.698886 143,790 Z" id="Path-559" fill="#6FB1C8" fill-rule="nonzero"></path><path d="M367.5,863 C367.5,863 408,881.5 412.496455,912.361551 C382.498818,879.45385 367.5,863 367.5,863 Z" id="Path-560" fill="#7BAFCA" fill-rule="nonzero"></path><path d="M443.268708,752.5 C453,752.5 501,716.5 550,730 C472.358277,745 436.78118,752.5 443.268708,752.5 Z" id="Path-561" fill="#7BB0CA" fill-rule="nonzero"></path><path d="M217,933.5 C262.333333,946.983051 308.5,917.316384 355.5,844.5 L278,992.5 C269.341412,990.791967 259.174746,984.291967 247.5,973 C235.825254,961.708033 225.658588,948.541366 217,933.5 Z" id="Path-562" fill="#E2CCAB" fill-rule="nonzero"></path><path d="M454,1047.5 C491.333333,1016.83333 519.166667,977.666667 537.5,930 C547.166667,948.387978 551.333333,965.401639 550,981.040984 L454,1047.5 Z" id="Path-563" fill="#E2CCAB" fill-rule="nonzero"></path><path d="M271,600.720207 C293.666667,608.735548 304.5,621.536015 303.5,639.121609 C302,665.5 306,705 273,704.5 C288.333333,702.166667 295.833333,684.833333 295.5,652.5 C295.387676,636.761432 294.221009,626.094765 292,620.5 C289.665454,614.619232 282.665454,608.025968 271,600.720207 Z" id="Path-565" fill="#BEC7DA" fill-rule="nonzero"></path><path d="M587.462264,640 C604.541923,640.333333 610.90146,634.333333 606.540876,622 C605.180292,616.992424 601.833333,614.657197 596.5,614.994318 C608.166667,600.168221 620.166667,597.545977 632.5,607.127586 C621.808176,605.709195 614.301887,607.833333 609.981132,613.5 C619.993711,624.5 621.333333,632.666667 614,638 C606.666667,643.333333 597.820755,644 587.462264,640 Z" id="Path-568" fill="#C5947D" fill-rule="nonzero"></path><path d="M373,584.977698 C387,581.952842 395.666667,587.200345 399,600.720207 L387.5,600.720207 C387.844367,596.090095 387.011034,592.68336 385,590.5 C382.988966,588.31664 378.988966,586.475873 373,584.977698 Z" id="Path-569" fill="#C5947D" fill-rule="nonzero"></path><path d="M515,594 L532,601.485481 L550.742424,597 C545.580808,605.808385 539.166667,609.808385 531.5,609 C523.833333,608.191615 518.333333,603.191615 515,594 Z" id="Path-570" fill="#6C5549" fill-rule="nonzero"></path><path d="M432,583 L449,590.485481 L467.742424,586 C462.580808,594.808385 456.166667,598.808385 448.5,598 C440.833333,597.191615 435.333333,592.191615 432,583 Z" id="Path-570-Copy" fill="#6C5549" fill-rule="nonzero"></path><path d="M488.5,592.5 C466.5,591.5 464.666667,600.5 483,619.5 C480,614.5 478.666667,608.833333 479,602.5 C479.150747,599.635814 482.317413,596.302481 488.5,592.5 Z" id="Path-571" fill="#C5947D" fill-rule="nonzero"></path><path d="M515,567.944589 C533,555.092792 546.5,557.83356 555.5,576.166893 C547.73436,571.427559 541.567693,568.594225 537,567.666893 C532.567693,566.767047 525.23436,566.859612 515,567.944589 Z" id="Path-572" fill="#F3D2C2" fill-rule="nonzero"></path><path d="M433.299374,560.292669 C451.299374,547.440872 464.799374,550.18164 473.799374,568.514974 C466.033733,563.775639 459.867067,560.942306 455.299374,560.014974 C450.867067,559.115127 443.533733,559.207693 433.299374,560.292669 Z" id="Path-572-Copy" fill="#F3D2C2" fill-rule="nonzero" transform="translate(453.549374, 560.431527) rotate(-13.000000) translate(-453.549374, -560.431527) "></path><path d="M498,617 C475,629.333333 473.833333,641 494.5,652 C488.202035,646.312983 485.368702,640.312983 486,634 C486.631298,627.687017 490.631298,622.020351 498,617 Z" id="Path-573" fill="#C5947D" fill-rule="nonzero"></path><path d="M481.204819,517.209563 C474.538153,481.111174 495.538153,468.728646 544.204819,480.061979 C526.84059,477.606182 512.007257,479.939515 499.704819,487.061979 C487.038153,494.395312 480.871486,504.444507 481.204819,517.209563 Z" id="Path-574" fill="#8E8E8E" fill-rule="nonzero"></path><path d="M502.182745,522.452303 C495.516078,486.353914 516.516078,473.971386 565.182745,485.30472 C547.818516,482.848922 532.985183,485.182255 520.682745,492.30472 C508.016078,499.638053 501.849412,509.687247 502.182745,522.452303 Z" id="Path-574-Copy" fill="#8E8E8E" fill-rule="nonzero" transform="translate(533.080335, 501.847522) rotate(6.000000) translate(-533.080335, -501.847522) "></path><path d="M523.585933,530.734977 C516.919266,494.636587 537.919266,482.254059 586.585933,493.587393 C569.221704,491.131595 554.38837,493.464929 542.085933,500.587393 C529.419266,507.920726 523.252599,517.969921 523.585933,530.734977 Z" id="Path-574-Copy-2" fill="#8E8E8E" fill-rule="nonzero" transform="translate(554.483523, 510.130195) rotate(22.000000) translate(-554.483523, -510.130195) "></path></g></g><path d="M1070.23205,265 L1054.89333,231.5 L1047,119 L1634.48952,118 C1640.50349,683.333333 1640.50349,989.594077 1634.48952,1036.78223 C1628.47556,1083.97038 1623.58921,1116.04297 1619.83048,1133 L1603.48,140 L1070.23205,140 L1070.23205,265 Z M1550,1300 L1539.28039,1244.27122 L1528.56078,201.003845 L1159.84573,201.003845 L1130,246.015381 L1133.72401,186 L1550,186 L1550,1300 Z M1503.5,683 L1417.5,696.5 L1419,893 L1491,893 L1510,745.681529 L1510,913.970914 L1398.5404,913.970914 L1398.5404,677.751937 L1503.5,683 Z M804.5,685.5 L673.5,682.748063 C683.833333,668.913439 719.556401,662.497418 780.669202,663.5 L781.5,21.5 L19.5,23 L24.2080491,706 C67.6800818,706.333333 96.4114967,712.666667 110.402294,725 L0.440769332,725 L0.440769332,0 L802.470199,0 L804.5,685.5 Z M474.5,617.5 L714.258555,594.890444 L703.5,96 L92.5,99 L96.7998069,615.937881 L173.5,623.5 L74.9339599,628 L77.0017719,82.3535556 L722.800254,82.3535556 L735.821192,615.937881 L474.5,617.5 Z" id="Path-688" fill="#F0F4FA" fill-rule="nonzero"></path></g></g></svg> 